<svg xmlns="http://www.w3.org/2000/svg" viewBox="0 0 200 200"><ellipse cx="100" cy="180" rx="62" ry="8" fill="#231F1C" opacity=".12"/><g transform="translate(-48 14) translate(100 110) scale(0.62) translate(-100 -110)"><rect x="65" y="58" width="70" height="114" rx="8" fill="#B8902F" stroke="#231F1C" stroke-width="3.5" stroke-linejoin="round" stroke-linecap="round"/><ellipse cx="100" cy="58" rx="35" ry="9" fill="#E4D2B2" stroke="#231F1C" stroke-width="3.5" stroke-linejoin="round" stroke-linecap="round"/><rect x="65" y="94" width="70" height="42" fill="#FFF6E6" stroke="#231F1C" stroke-width="3.5" stroke-linejoin="round" stroke-linecap="round"/><path d="M74 110h52M74 121h34" stroke="#231F1C" stroke-width="3" fill="none"/></g><g transform="translate(48 14) translate(100 110) scale(0.62) translate(-100 -110)"><rect x="65" y="58" width="70" height="114" rx="8" fill="#B8902F" stroke="#231F1C" stroke-width="3.5" stroke-linejoin="round" stroke-linecap="round"/><ellipse cx="100" cy="58" rx="35" ry="9" fill="#E4D2B2" stroke="#231F1C" stroke-width="3.5" stroke-linejoin="round" stroke-linecap="round"/><rect x="65" y="94" width="70" height="42" fill="#FFF6E6" stroke="#231F1C" stroke-width="3.5" stroke-linejoin="round" stroke-linecap="round"/><path d="M74 110h52M74 121h34" stroke="#231F1C" stroke-width="3" fill="none"/></g><g transform="translate(0 14) translate(100 110) scale(0.78) translate(-100 -110)"><rect x="65" y="58" width="70" height="114" rx="8" fill="#B8902F" stroke="#231F1C" stroke-width="3.5" stroke-linejoin="round" stroke-linecap="round"/><ellipse cx="100" cy="58" rx="35" ry="9" fill="#E4D2B2" stroke="#231F1C" stroke-width="3.5" stroke-linejoin="round" stroke-linecap="round"/><rect x="65" y="94" width="70" height="42" fill="#FFF6E6" stroke="#231F1C" stroke-width="3.5" stroke-linejoin="round" stroke-linecap="round"/><path d="M74 110h52M74 121h34" stroke="#231F1C" stroke-width="3" fill="none"/></g></svg>